<svg xmlns="http://www.w3.org/2000/svg" fill="none" viewBox="0 0 500 500">
  <g filter="url(#a)">
    <path stroke="#7bb560" stroke-width="60" d="M446 304V185c0-5.6 0-8.4-1.1-10.5a10 10 0 0 0-4.4-4.4c-2.1-1.1-5-1.1-10.5-1.1h-33c-5.6 0-8.4 0-10.5 1a10 10 0 0 0-4.4 4.5c-1.1 2.1-1.1 4.9-1.1 10.5v119m65 0h30m-30 0h-65m65 36v83c0 5.6 0 8.4-1.1 10.5a10 10 0 0 1-4.4 4.4c-2.1 1.1-5 1.1-10.5 1.1h-33c-5.6 0-8.4 0-10.5-1a10 10 0 0 1-4.4-4.5c-1.1-2.1-1.1-4.9-1.1-10.5V304"/>
    <path stroke="#bece57" stroke-width="60" d="M250 136c0-5.6 0-8.4 1-10.5a10 10 0 0 1 4.5-4.4c2.1-1.1 4.9-1.1 10.5-1.1h33c5.6 0 8.4 0 10.5 1a10 10 0 0 1 4.4 4.5c1.1 2.1 1.1 4.9 1.1 10.5v108c0 5.6 0 8.4-1 10.5a10 10 0 0 1-4.5 4.4c-2.1 1.1-4.9 1.1-10.5 1.1h-33c-5.6 0-8.4 0-10.5-1a10 10 0 0 1-4.4-4.5c-1.1-2.1-1.1-4.9-1.1-10.5zm0 171c0-5.6 0-8.4 1-10.5a10 10 0 0 1 4.5-4.4c2.1-1.1 4.9-1.1 10.5-1.1h33c5.6 0 8.4 0 10.5 1a10 10 0 0 1 4.4 4.5c1.1 2.1 1.1 4.9 1.1 10.5v116c0 5.6 0 8.4-1 10.5a10 10 0 0 1-4.5 4.4c-2.1 1.1-4.9 1.1-10.5 1.1h-33c-5.6 0-8.4 0-10.5-1a10 10 0 0 1-4.4-4.5c-1.1-2.1-1.1-4.9-1.1-10.5z"/>
    <path fill="#f2ca60" d="M202.5 67.4a33.7 33.7 0 0 0-46 12.2l-38.8 67c-4.7 8.1-7 12.1-7.5 16.1a19 19 0 0 0 3.6 13.4c2.3 3.2 6.4 5.6 14.4 10.3 8.1 4.6 12.1 7 16.1 7.4a19 19 0 0 0 9.7-1.4v246.1a49 49 0 0 0 1.7 18.5 20 20 0 0 0 10.3 10.3c3.8 1.7 8.7 1.7 18.5 1.7s14.7 0 18.5-1.7a20 20 0 0 0 10.3-10.3c1.7-3.8 1.7-8.7 1.7-18.5V101.8c0-5.5 0-9.3-.3-12.3.3-8.8-4-17.4-12.2-22.1"/>
    <path fill="#ec8f5e" fill-rule="evenodd" d="M69.5 30c-2.3 0-5.6 0-8.5.2A40 40 0 0 0 24.2 67c-.2 3-.2 6.2-.2 8.5v348c0 2.3 0 5.6.2 8.5A40 40 0 0 0 61 468.8c3 .2 6.2.2 8.5.2h34c2.3 0 5.6 0 8.5-.2a40 40 0 0 0 36.8-36.8c.2-3 .2-6.2.2-8.5v-139H89V409h-5V279.5h65v-80.7a24 24 0 0 1-5.3 0q-4-.6-8-2.6-4.2-2-9.8-5.4l-.3-.2q-6-3.3-9.6-5.8a25 25 0 0 1-6.3-5.7 24 24 0 0 1-4.5-17q.6-4 2.6-8 2-4.2 5.4-9.8L149 82.6v-7.1c0-2.3 0-5.6-.2-8.5A40 40 0 0 0 112 30.2c-3-.2-6.2-.2-8.5-.2zM89 219.5h-5V90h5z" clip-rule="evenodd"/>
  </g>
  <defs>
    <filter id="a" width="460" height="447" x="22" y="30" color-interpolation-filters="sRGB" filterUnits="userSpaceOnUse">
      <feFlood flood-opacity="0" result="BackgroundImageFix"/>
      <feColorMatrix in="SourceAlpha" result="hardAlpha" values="0 0 0 0 0 0 0 0 0 0 0 0 0 0 0 0 0 0 127 0"/>
      <feOffset dx="2" dy="4"/>
      <feGaussianBlur stdDeviation="2"/>
      <feComposite in2="hardAlpha" operator="out"/>
      <feColorMatrix values="0 0 0 0 0 0 0 0 0 0 0 0 0 0 0 0 0 0 0.1 0"/>
      <feBlend in2="BackgroundImageFix" result="effect1_dropShadow_29_99"/>
      <feBlend in="SourceGraphic" in2="effect1_dropShadow_29_99" result="shape"/>
      <feColorMatrix in="SourceAlpha" result="hardAlpha" values="0 0 0 0 0 0 0 0 0 0 0 0 0 0 0 0 0 0 127 0"/>
      <feOffset dx="-4" dy="-4"/>
      <feComposite in2="hardAlpha" k2="-1" k3="1" operator="arithmetic"/>
      <feColorMatrix values="0 0 0 0 0 0 0 0 0 0 0 0 0 0 0 0 0 0 0.1 0"/>
      <feBlend in2="shape" result="effect2_innerShadow_29_99"/>
    </filter>
  </defs>
</svg>
