<svg xmlns="http://www.w3.org/2000/svg" viewBox="0 0 500 500">
  <g filter="url(#a)">
    <path fill="#7bb560" fill-rule="evenodd" d="M372 154.5h27c1.8 0 4.4 0 6.7.2a31.6 31.6 0 0 1 29 29c.3 2.3.3 5 .3 6.7v115.8h-53.8v77.4h8.7v-68.7h45V395l-.1 6.7a31.6 31.6 0 0 1-29 29c-2.4.2-5 .2-6.8.2h-26.9c-1.8 0-4.4 0-6.7-.2a31.6 31.6 0 0 1-29-29c-.3-2.3-.3-5-.3-6.7V190.4c0-1.8 0-4.4.2-6.7a31.6 31.6 0 0 1 29-29c2.4-.2 5-.2 6.8-.2m9.2 106.7h8.7v-59.3h-8.7z" clip-rule="evenodd"/>
    <path fill="#bece57" fill-rule="evenodd" d="M264.5 115.8h26.9l6.8.2a31.6 31.6 0 0 1 29 29c.2 2.3.2 4.9.2 6.7V238l-.2 6.7a32 32 0 0 1-7 17.7 32 32 0 0 1 7 17.8c.2 2.3.2 4.9.2 6.7v108.3c0 1.8 0 4.4-.2 6.7-.2 2.8-.8 7.2-3.2 12a32 32 0 0 1-25.8 17c-2.4.2-5 .2-6.8.2h-26.9c-1.8 0-4.4 0-6.7-.2a31.6 31.6 0 0 1-29-29c-.3-2.3-.3-5-.3-6.7V286.8c0-1.8 0-4.4.2-6.7a32 32 0 0 1 7.1-17.8 32 32 0 0 1-7-17.7c-.3-2.3-.3-5-.3-6.7v-86.2c0-1.8 0-4.4.2-6.7a31.6 31.6 0 0 1 29-29c2.4-.2 5-.2 6.8-.2m9.1 47.4v63.2h8.7v-63.2zm0 135v85.4h8.7v-85.3z" clip-rule="evenodd"/>
    <path fill="#f2ca60" d="M210 98a26.7 26.7 0 0 0-36.5 9.6l-30.7 53a38 38 0 0 0-5.9 12.6 15 15 0 0 0 2.8 10.6c2 2.6 5.1 4.4 11.5 8.1s9.6 5.6 12.7 6q4 .3 7.7-1.2v210.2a40 40 0 0 0 1.3 14.6q2.5 5.7 8.2 8.2a40 40 0 0 0 14.6 1.3c7.8 0 11.6 0 14.7-1.3q5.5-2.5 8.1-8.2c1.3-3 1.3-6.9 1.3-14.6V125.1q0-6.3-.2-9.7a19 19 0 0 0-9.7-17.5"/>
    <path fill="#ec8f5e" fill-rule="evenodd" d="M100 68c-1.8 0-4.4 0-6.7.2a31.6 31.6 0 0 0-29 29c-.3 2.3-.3 5-.3 6.7v290.8c0 1.8 0 4.4.2 6.7.2 2.8.8 7.2 3.2 12a32 32 0 0 0 25.9 17c2.3.2 4.9.2 6.7.2h26.9c1.8 0 4.4 0 6.7-.2a31.6 31.6 0 0 0 29-29c.3-2.3.3-4.9.3-6.7V272.2h-45.1v111H109V263.5h53.8v-58.4c-2 0-1.8.1-3.2 0-2.2-.3-5.2-1.6-7.4-2.7q-3.1-1.5-7.7-4.2l-.3-.2c-3-1.8-5.5-4-7.5-5.3q-3-2-5-4.6a26 26 0 0 1-3.6-15.7q.5-3.3 2.1-6.4t4.3-7.7l28.3-48.8V104c0-1.8 0-4.4-.2-6.7a31.6 31.6 0 0 0-29-29c-2.4-.2-5-.2-6.8-.2zm17 149.7h-8V115.4h8.8z" clip-rule="evenodd"/>
  </g>
  <defs>
    <filter id="a" width="379" height="371" x="62" y="68" color-interpolation-filters="sRGB" filterUnits="userSpaceOnUse">
      <feFlood flood-opacity="0" result="BackgroundImageFix"/>
      <feColorMatrix in="SourceAlpha" result="hardAlpha" values="0 0 0 0 0 0 0 0 0 0 0 0 0 0 0 0 0 0 127 0"/>
      <feOffset dx="2" dy="4"/>
      <feGaussianBlur stdDeviation="2"/>
      <feComposite in2="hardAlpha" operator="out"/>
      <feColorMatrix values="0 0 0 0 0 0 0 0 0 0 0 0 0 0 0 0 0 0 0.1 0"/>
      <feBlend in2="BackgroundImageFix" result="effect1_dropShadow_47_29"/>
      <feBlend in="SourceGraphic" in2="effect1_dropShadow_47_29" result="shape"/>
      <feColorMatrix in="SourceAlpha" result="hardAlpha" values="0 0 0 0 0 0 0 0 0 0 0 0 0 0 0 0 0 0 127 0"/>
      <feOffset dx="-4" dy="-4"/>
      <feComposite in2="hardAlpha" k2="-1" k3="1" operator="arithmetic"/>
      <feColorMatrix values="0 0 0 0 0 0 0 0 0 0 0 0 0 0 0 0 0 0 0.1 0"/>
      <feBlend in2="shape" result="effect2_innerShadow_47_29"/>
    </filter>
  </defs>
</svg>
